/* XPM */
static char *aabb56dbc8324cd08caa8c9e2754ba612pLZtTRv8aK1eYa7[] = {
/* columns rows colors chars-per-pixel */
"80 82 255 2 ",
"   c None",
".  c #3C190B",
"X  c #391507",
"o  c #290F06",
"O  c #441B0B",
"+  c #4B1D0B",
"@  c #471606",
"#  c #5C1E09",
"$  c #541B09",
"%  c #661E09",
"&  c #4E200D",
"*  c #53220D",
"=  c #5B230D",
"-  c #5E2F0E",
";  c #4A2513",
":  c #5C2710",
">  c #592813",
",  c #5F351E",
"<  c #64240C",
"1  c #69260D",
"2  c #75240B",
"3  c #78290D",
"4  c #642B12",
"5  c #6A2D12",
"6  c #602710",
"7  c #742E12",
"8  c #6C3115",
"9  c #66341B",
"0  c #733314",
"q  c #7B3314",
"w  c #773A19",
"e  c #6D390D",
"r  c #6B3B22",
"t  c #764617",
"y  c #774629",
"u  c #7F4F31",
"i  c #872C0C",
"p  c #9C350F",
"a  c #94320E",
"s  c #863816",
"d  c #973C13",
"f  c #8C320E",
"g  c #A53C11",
"h  c #A1390F",
"j  c #874617",
"k  c #96441A",
"l  c #8E5013",
"z  c #AD4214",
"x  c #A64719",
"c  c #B24514",
"v  c #BB4C15",
"b  c #B34D1A",
"n  c #B64B16",
"m  c #A85919",
"M  c #B5521D",
"N  c #BC541C",
"B  c #BC591D",
"V  c #AC570E",
"C  c #976918",
"Z  c #B96815",
"A  c #A8751B",
"S  c #B87719",
"D  c #B46812",
"F  c #854B2B",
"G  c #974A23",
"H  c #8C522D",
"J  c #96562B",
"K  c #885231",
"L  c #965B36",
"P  c #804E31",
"I  c #A95627",
"U  c #BC5B22",
"Y  c #B45A26",
"T  c #A65D34",
"R  c #A65024",
"E  c #9C623C",
"W  c #95613D",
"Q  c #9A6726",
"!  c #BC6229",
"~  c #A8663A",
"^  c #B86634",
"/  c #B7783A",
"(  c #B07227",
")  c #C2551A",
"_  c #C45A1D",
"`  c #C95D1D",
"'  c #C35216",
"]  c #C14E16",
"[  c #CB611F",
"{  c #CA6713",
"}  c #C77717",
"|  c #D2780D",
" . c #C45E21",
".. c #C95F20",
"X. c #C56223",
"o. c #CB6422",
"O. c #CD6926",
"+. c #CC6C29",
"@. c #C4692A",
"#. c #D26C25",
"$. c #D16C27",
"%. c #CB742B",
"&. c #D4732B",
"*. c #D9752B",
"=. c #DB7A2E",
"-. c #D6752A",
";. c #CC7332",
":. c #C9793A",
">. c #DB7D31",
",. c #D47A34",
"<. c #C66E31",
"1. c #E07F30",
"2. c #996642",
"3. c #A96C42",
"4. c #AE7349",
"5. c #B4754A",
"6. c #BB7B4C",
"7. c #B67547",
"8. c #B0764E",
"9. c #A07964",
"0. c #C67B46",
"q. c #BC871C",
"w. c #BF921E",
"e. c #B88C2A",
"r. c #C8881B",
"t. c #D68818",
"y. c #DA981D",
"u. c #CC951F",
"i. c #E39418",
"p. c #C68826",
"a. c #C89626",
"s. c #D79827",
"d. c #DC8335",
"f. c #DB873A",
"g. c #CA9738",
"h. c #D79A36",
"j. c #CE8831",
"k. c #E28433",
"l. c #E28C3B",
"z. c #E48936",
"x. c #E39438",
"c. c #DAA727",
"v. c #D9A738",
"b. c #DBBB36",
"n. c #D0AC2D",
"m. c #E5A925",
"M. c #ECB224",
"N. c #E7B52A",
"B. c #F5B924",
"V. c #E4AA35",
"C. c #E8B636",
"Z. c #F0B530",
"A. c #EEA71D",
"S. c #EDC32E",
"D. c #F4C32B",
"F. c #F9C82A",
"G. c #E8C735",
"H. c #F3CC34",
"J. c #F3C636",
"K. c #EDD537",
"L. c #F4D434",
"P. c #F3DD3A",
"I. c #F9D937",
"U. c #FBD12E",
"Y. c #F4E33C",
"T. c #FBE33C",
"R. c #F6EA3E",
"E. c #FAE83C",
"W. c #DCC734",
"Q. c #BD8354",
"!. c #BA8D4D",
"~. c #B08B6B",
"^. c #BFA57B",
"/. c #C88449",
"(. c #D98A45",
"). c #CE9942",
"_. c #C28454",
"`. c #C58A5B",
"'. c #C98E5D",
"]. c #C78956",
"[. c #CC935B",
"{. c #D8975A",
"}. c #D7924E",
"|. c #E39345",
" X c #E69A4C",
".X c #E59C57",
"XX c #E18E40",
"oX c #DAAA4E",
"OX c #E5B748",
"+X c #EDA353",
"@X c #EBA659",
"#X c #F1AB5C",
"$X c #F0A854",
"%X c #E8B858",
"&X c #EAA94A",
"*X c #CB9262",
"=X c #C99965",
"-X c #D59B64",
";X c #C28D6A",
":X c #D9A368",
">X c #D9A875",
",X c #D4B076",
"<X c #E9A868",
"1X c #F3AC66",
"2X c #E7B968",
"3X c #F5B36C",
"4X c #F4B466",
"5X c #E6AC74",
"6X c #E8B577",
"7X c #F7B975",
"8X c #E49F63",
"9X c #EBC648",
"0X c #F4C749",
"qX c #F4D846",
"wX c #EBC954",
"eX c #F5D753",
"rX c #F0CD53",
"tX c #F7ED41",
"yX c #F8EF42",
"uX c #F6E446",
"iX c #FAF342",
"pX c #FAF549",
"aX c #F7E859",
"sX c #F6C67A",
"dX c #F1CF6E",
"fX c #F8EA69",
"gX c #DCC45D",
"hX c #B69888",
"jX c #D1AE90",
"kX c #E7B985",
"lX c #F4BE84",
"zX c #EAB993",
"xX c #D7B8A4",
"cX c #C9B6A4",
"vX c #CB9984",
"bX c #E9C489",
"nX c #F7C787",
"mX c #F8CB93",
"MX c #FCD49B",
"NX c #F7D597",
"BX c #EECF92",
"VX c #FAE694",
"CX c #D8C6BA",
"ZX c #F9DAA3",
"AX c #EDD1B3",
"SX c #FAE5AB",
"DX c #FDECB3",
"FX c #F5E5B8",
"GX c #FDF2BB",
"HX c #EEE1BD",
"JX c #DCC090",
"KX c #D9CBC3",
"LX c #EBD5C4",
"PX c #F9E8C4",
"IX c #FEF6C1",
/* pixels */
"                                                                                                AXAX                                                            ",
"                                                                                                vX X{.zX                                                        ",
"                                                                                                  5X&Xx.d.                                                      ",
"                                                                                                    xXj * t cX                                                  ",
"                                                                        PXAXPX  HXHXPXPXHXPXPXFXFXFXAX6X,XkXbXNXZXSXSXZXMXNXNXmXnXnX7X7X3X3X1X@X1X'.            ",
"                                                                      HX6X7X7XnXnXnXmXNXNXMXZXZXMXmXmXlXbXnXnXbXnXbX6X6X6X6X5X<X8X-X{.}.(.0./ /.1X7.).          ",
"                                                                      mXG s s k k x R R I Y ^ Y ^ ^ ^ ^ ^ I T Y I R R G G k j j s q 3 4 4 < = 5.1Xj.C.;X        ",
"                                                                      <Xs 7 $ $ % 3 i i i a h h h p p p a 2 % i i f i i 2 % 2 % % $ @ @ @ X X ]..X3.7.0.xX      ",
"                                                                      -Xk 0 q < < 3 f d s k d d d k d G d s q q s s s s q q 1 < % # $ @ @ X X <X-X7.4._.6.      ",
"                                                                    ZX7.s . s f i a p k x b x x U Y U U @.@.X.! ! U U @.! U Y R I Y x x k d T 7X].~ y 0./ CX    ",
"                                                                    mXI q @ < d a h z c b v b b g x  .@.<.+.+.+.+.+.o.O.O.o._ N k R b g d d 0.7X6.L X H a.2X    ",
"                                                                    6XR 4 @ @ k x p g z b N v v c Y U O.O.+.+.+.+.+.+.$.O.o._ ) b g g g p a {.3Xg.H * 9 / _.    ",
"                                                                  PX*XR # $ @ F b p g g n v ] v c g _ ` ......` .._ _ _ ` ` _ ' ] v g g p f 2X<XZ.t * * 3.].LX  ",
"                                                                  FX7.G = $ # 1 Y x d g g c g n n n v ' ] N ) N ) ) )  .) ) ' ] c i g g p x nX[.~ - & & L `.xX  ",
"                                                                  NXY j < # 1 2 ~ U .. ...o.X.@.@.;.<.@.<.:.,.0.0.:.:.<.<.^ Y b R 7 i p a 5.nX].3.4 : * P '.jX  ",
"                                                                  kXY 8 < # 1 2 ~  .)  .o.+.+.&.,.;.;.d.d.XX|. X+X$X$X#X$X Xf.(. X.X#X<X@XnXNX_.E 5 4 6 w _.*X  ",
"                                                                  *XI 1 1 # 2 2 T U ` ..[ #.&.*.>.d.f.f.|. X X X$X$X#X#X1X$X1X1X3X3X1X1X#XMXbX_.K 9 5 5 0 /.G.  ",
"                                                                SX7.G 4 # # 2 2 T U ) ) ` ..o.*.>.>.l.(. X.X+X X$X#X#X4X4X4X4X X7X7X7X7X7XSXkX_.w 9 6 5 0 6.).  ",
"                                                                mXT s 1 # 4 % 2 3.U  .b _ o.o.*.+.&.f.>.XX|.;.,.$X$X#X1X4X3X3X1X3X7X7XsXsXGX>XQ.0 0 6 7 0 `.6.  ",
"                                                                >XY 1 1 # 1 2 2 T Y  . . .` ..#.+.&.>.d.k.(.XXf.l.|.+X+X#X1X+X+X4X3X7X3XmXDX'.5.0 8 4 5 8 `.6.  ",
"                                                              PX].R % < # 1 % 2 3.U g ) ..<.;.;.;.;.:.0.(.(.(.(.XXz.XXXXl.XX,.(. X+X@X#XZXZX'.E 0 8 5 0 0 5.'.  ",
"                                                              ZX^ G < = < % # 2 ^  .] ..o.$.=.#.>.>.*.=.=.*.=.;.;.0.(.|.}.(.0.(..X{..X.XFXBX'.F w 5 1 0 0 5.*X  ",
"                                                              bXY w 1 % 7 2 % q :.) ] ..$.&.-.#.=.=.=.k.1.1.1.k.z.XXx. X|.|.|..X X(.(.{.IX,XoX0 8 4 4 q 0 7.}.  ",
"                                                            LX>XI % % # 7 2 2 L U g ) ..#.*.$.$.=.>.>.z.z.z.XXXXXX|. X+X$X.X+X.X.X.X X6XGX2Xn.0 8 4 4 0 0 !.wX  ",
"                                                            ZX7.J % % $ 3 2 2 T U v [ #.*.=.$.*.>.>.>.l.z.l.|.x.:. X+X$X#X#X#X#X#X#X#XmXDX_.~ w 8 6 = 7 s _.kX  ",
"                                                            mXI s < % 6 2 2 G ^ Y v _ o.$.o.o.#.>.*.=.k.z.l.|.l.l.$X$X1X4X4X4X4X3X3X4XSXAX'.L 0 8 1 = 5 W '.xX  ",
"                                                            >XI q < = 4 2 2 T Y g z b M M b b B X.X.O.*.>.k.f.d.l.+X#X#X#X#X4X3X7X3X7XGXbX*Xw q 5 8 8 8 4.*XCX  ",
"                                                          FX'.I % % < 7 2 T Y M n N U ) ) ) B X. .) N b U X.X.@.<.|.+X+X$X#X1X1X3X7XsXIX>XQ.w 0 5 0 0 5 6.*X    ",
"                                                          DX/ G % % # 7 G @.b c N _ [ X.X.O.+.&.O.o.o.o.o.[ _ g g b Y @.:.:./.}..X@XnXGX'.5.q 7 5 0 0 w _.-X    ",
"                                                          BXY Q 1 # 5 k ^ Y g N ` o.o._ o.o.$.$.$.$.#.#.+.o._ v ` ` ` ` ' v v ] n c zXFX'.L q 7 5 q w L ).jX    ",
"                                              FXSXGXVXFXDXgXS t.c.C j I Y G b U [ [ ` B B ` $.$.#.#.#.O.$.) b o.+.+.O.o.` ` ' ` ) ] ZXBX_.F q e 0 0 0 5.C.HX    ",
"                                            FXY.P.R.R.R.R.iXP.N.K.tXW.a.b.e.n.k d d k d f x B o.O.+.+.o.) x b o.o.$.#.` ` ` ` ` ` 0.DXjX0.q q 1 8 0 F ].'.      ",
"                                AXoXBX6XaXgXOXN.L.R.R.yXR.tXY.L.D.S.G.t.M.H.L.S.l 1 < = = 1 f k B X.! M k z B [ X.O.[ [ [  .o.o. .:XSXQ.8.q 7 5 8 8 4.'.jX      ",
"                        PXgX[.9XK.P.Y.iXpXR.c.S.a.R.iXR.iXE.tXY.L.H.D.i.t.t.G.S.N.i.D = < 2 s k x d 3 2 2 f k B ! X.[ _ B B _ _ B kXZXg.E 7 5 4 0 F '.].        ",
"                      bXy.K.W.R.Y.R.R.iXiXR.D.q.j a.Y.P.Y.T.yXyXR.Y.I.D.i.A.y.t.i.i.t.l e q A t.v.A q q s f a p p a k k k b U U N ZXbX9XJ 1 < 4 5 8.].vX        ",
"                  FXq.} K.yXR.R.H.R.R.iXiXN.M.w.r.l N.D.L.P.eXaXG.G.Y.K.| { D | | t.t.r.c.L.E.Y.n.u.A f s f p x z p a 2 % % 1 3 F SX,Xj.5 1 = : L ).v.          ",
"              PXwXqXtXK.P.Y.R.R.M.R.R.iXY.R.R.U.D.m.D D.E.tXfXaXG.j V c.S.n.l } S.P.Z S q.r.s.Y.r.S D D D V f f f i % $ @ $ $ % 9.DX!.T < = * H Q.g.bX          ",
"        AXjX2Xg.a.tXR.Y.P.R.Y.P.W.K.c.b.R.R.R.U.M.A.L.E.iXiXR.pXaXJ j D s.oX9XP.qXb.j.( C.V.s.y.l p.%.y.t.} %.j $ O ; * & @ @ $ ^.DX~ H $ > J 4.0.*X            ",
"  eX9XwX8XQ.Q j b.K.R.K.R.R.R.R.R.R.K.R.Y.R.R.y.t.L.E.R.pXiXiXpXoX~ S t.m.g.g.v.).6X%Xv.9XV.&Xj.%.p.t.C.s.h.| ( w y * ; ; o X X jXBX~ E E ~ T / Q.              ",
"  fXaXI.L.nX7X:XoXG.K.n.W.K.W.P.R.R.R.R.F.E.R.S.W.E.R.R.iXpXeXv.p.c.Z.B.s.wXb.OXp.( j.C.0XB.OXh.s.m p.c.OXm.t.%.m P r y ,X~.W * FXzXe.7.6./ C.5.KX              ",
"  SXeXT.I.nXNXSXdXdX7X]./ m n.K.R.R.K.tXS.Y.R.tXF.G.Y.G.p.( g.C.eXN.c.a.S eXJ.eXc.p.).( g.N.C.V.x.r.a.C.Z.Z.A.s.Z H 8 9 =XSXVXNXGX,XS.6.5.~ j.LX                ",
"  FXuXJ./.<XnXSX0XT.mXSXZXbX:XoXK.K.tXR.Y.Y.Y.Y.N.R.tXpXa.Q gX9X( e.R.D.V wX9XqXeXOXh.p.g.g.9XJ.V.b.uXqXH.J.y.c.} Y y L -X/.:X6XZX0.f.6.7.hX                    ",
"    I.&X0.n +.5X%XI.2XGXGXGXDXZXsX2XwX9XK.Y.R.Y.P.R.P.aX9Xb.fXfXeXrXiXtXy.S s.OXP.H.N.s.g.b.iXR.qXm.P.Y.G.J.B.{ V x m J /.%.t.A.0XKXAXKX                        ",
"    uXZ.].b [ #.s.I.!.BXDXGXDXVX2XSXSXMX,X%XOXK.uXY.aXaXeXtXqXaXaX9XpXR.R.P.U.S.M.K.H.V.h.Y.iXY.uXH.K.P.P.I.OXh.0._./.4.m.B.D.F.BX                              ",
"      3X8XY ..$.-.N.l U |.6XMXfXB.sXDXIXGXDXNXsXdX%XqXaXaXY.Y.R.pXG.R.Y.T.R.R.Y.L.N.a.u.S K.tXpXtXP.G.wX%X{.-X*X`.6.7.L M.B.D.F.PX                              ",
"      lX<XY ] o.$.I.C Y d.|.C.H.H.wXDXDXGXGXVXtXeXNXnXdXoXG.Y.P.Y.e.L.L.U.R.Y.K.K.G.u.j S.b.uX9X%X:X*X/.6.*X*X_.8.~ L u q.M.B.B.                                ",
"      AX3X7.N N N } Z ! &.d.rXN.I.OX~ 6XMXGXdXI.I.BXZXSXZXnX%X&Xb.j a.c.N.tXtXtXP.K.G./.%X<X:X:X:X:X'.C.OX5.3.L L u r X ; A B.Z.                                ",
"        7X'.N _ ` B N B [ -.0XN.i.k.J %.f. X2XI.I.dXSXSXDXDXVXeXwX{./.:.A G.uXwXwX@X+XoX{.=X-X-X'.Q.3.p./ L K 9 * $ # X r S F.sX                                ",
"        7X5XU ..+.$.;.;. .%.L.t.C.Z T @.d.f.l.L.G.~.ZXBXDXDXVXI.T.I.I.%XoX{.#XOXJ.J.D.oX'.Q.6.5.3.~ H w 8 5 5 9 5 < : O P G oXFX                                ",
"        lX5XY ] ..$.=.;.;.C.p.-.OXr.8 b %.d.f.V.c.k o.;.5XmXnXL.L.U.qXI.U.F.F.F.F.S.B./ ~ ~ W K 9 4 5 9 0 9 5 9 8 4 1 ; L T CX                                  ",
"        mXlX3.b ....&.>.,.OX-.,.=XoXW 7 [ %.-.C.L.: @.-.*.*.>.h.H.U.aXqXI.U.U.F.F.B.a.L t 5 0 0 5 5 = 5 e - 4 8 5 4 = , ~ L                                     ",
"        LXMX`.c  ...&...d.OX%.,.!.OX!.; B U [ t.N.k @.*.*.*.*.v } S.F.qXI.F.F.B.M.A 5 5 8 8 0 0 5 : & * t l 6 6 < * * u 4.8.                                    ",
"          nX>Xx U X.o.+.,.$.=.,.g.V.7.. Y $.X. . .o.#.*.-.*.*.'  .x.F.0XI.F.B.A.C 8 6 8 5 4 5 * * C r.M.D.A = = 4 < * L 3.vX                                    ",
"          lXzX^ ! <.;.@.%.K.t.t.Y.N.n . 7 +.$.*.d.+.[ [ #.#.-.#.) s.U.U.U.B.M.B.w 1 < 4 e 4 = A N.M.F.A.B.t 1 4 4 4 * 3.7.KX                                    ",
"          mXmX^ O.%.@.X.! qXT.E.T.S.n O O O.&.*.k.d.1.=.O._ _ o.x ,.H.J.F.D.B.c.5 4 6 5 < = O u.M.D { M.B.e e 7 7 4 ; 4.8.                                      ",
"          AXnX0.N +.&.O.U G.T.tXT.L.' & o ! >.U -.z.k.k.=.=.-.X.b _.sXJ.F.B.N.~ 4 = * = * & . y.t.h V c.r.* 4 5 7 = , 0.~.                                      ",
"            3X'.M X.+.+. .v.T.I.T.I.{ 3 o l o.&.k.z.z.z.1.1.k.>.-.{.MXnXJ.v._.5.= * * - 4 > O Z V m.N.c.M.A 1 e 1 + P 5.xX                                      ",
"            3X{.R U  . ...a.T.G.L.T.s.d o < b z $.k.k.k.k.z.1.1.=.8XMXMX7XQ.`.8.6 6 5 , > & + < D L.r.A.r.M.- - > O 2.6.KX                                      ",
"            nX<XR M U  .N D T.I.b.T.C.d X X m x o.&.>.k.1.1.z.k.=.8XMXMXbXQ.'.8.4 4 4 5 : O + = n.m.l Z l M.l * $ O 4.0.                                        ",
"            nX3XT U X. .Y B S.T.T.I.c.k . O X.@.X.+.&.*.=.1.k.1.>.5XMXZXkX'.*X3.4 4 4 : & X & n.F.D q t e M.C = + , 5.~.                                        ",
"            qX$X6.b X.O.` X.s.I.T.I.y.s ; : $.*.+.+.;.;.,.=.*.=.*.5XMXZXkX'.'.2.< 6 * > & o e Y.u.e o X t U.l = @ P 3.xX                                        ",
"            sXZ.0.x U X.@.&.&.C.I.U.X.H > s &.=.&.+.;.>.,.;.;.*.#.<XZXMXkX*X'.2.= - : * . o e U.C X X . e.D.- = + L T KX                                        ",
"            NXS.0.k M  . .%.>.&.h.l.>X5.4 x #.#.-.#.M #.*.*.>.:.;.5XZXZXkX*X'.L = * & & X o t B.C . . & e.a.= $ > W ~                                           ",
"              qXv.G k M b  .$.&.=.d.mX7XF Y o.#.#.-.#.$.#.&.*.&.;.5XZXZX>X*XQ.K - - ; O . . & M.w.. O w.K.j $ @ r T ~.                                          ",
"              9XC.v.'.~ x b ..o.$.&.mXmXL @.<.X.o.` _ $.#.#.#.-.+.5XMXZX5X'.;XP = * & O + O . S N.q.y.I.A & + O P E cX                                          ",
"              kXv.OX X7X[.T M U  .o.lXMX3.o.$.O.X.x a ` [ o.#.#.#.5XmXMX>X'.0.F 6 : * + & & O 4 S m.c.C * * & > L E {.                                          ",
"                  =X&X3X3XlX-X^ b U %XdXQ. .$.#.o.o.M M _ [ ` [ ` <XMXZX>X*X0.F 4 : & * * & + O O - # $ = * + 9 H y.6X                                          ",
"                    CXxX7X3XlXlX*XY :X4X;XU o.o.O.o.[ [ B v ' ` _ 1XmXmX-X`.8.r 4 * $ > * * * O * = = * * $ . y u.c.AX                                          ",
"                          AXlX7XmXlX5XnX>Xx  ..._ [ [ ` ` _ n b v 3XnXnX-X_.~ 9 : # * > * : 6 $ : : $ * * O X ( c.s.                                            ",
"                              zX7X7XlX.X>Xd c N N N _ ` _ ) ' v z <XlXnX'.5.~ 4 > & > 4 6 4 > + > * + O X X ; w.c.V.                                            ",
"                                  zX3X0X7XkX5.x g c N N B N N v c <XlXlX_.Q.Q.4 : > 8 4 : 6 & @ + O X . y K q.w.n.,X                                            ",
"                                      -X@X7XlX>X~ d g z c c c c z <X1X7X`.'.Q.4 > 4 4 : : & . X . ; u 2.2.j.n.e.vX                                              ",
"                                        LX5X1X7X7X-XT a p g g g g .X@X<XQ.6.4.- : > : ; O . o ; P 3.2.2.~ h.jX                                                  ",
"                                            AX1X3X7X7X`.G f a a p {.<X<X5.5.E * & & + . . , u e.L 2.9.cX                                                        ",
"                                                zX3X3X1X<X0.s 2 i f.h.f.~ Q H & O X . y L 2.J w.9.KX                                                            ",
"                                                    zX1X1X8X].T l 0XOXZ.m.y.r.. ; y W 2.W L 9.KX                                                                ",
"                                                        kX.XV.&Xv.v.s.t.u.S u.C J K 2.W ~.KX                                                                    ",
"                                                          xXh.p.a.C.C.u.r.c.q.r.a.J hX                                                                          ",
"                                                            cXg.e.s.C.s.c.u.S a.e.CX                                                                            ",
"                                                                vXe.v.n.s.A Q ~.                                                                                ",
"                                                                  KX[.g.!.jX                                                                                    ",
"                                                                                                                                                                "
};
